<svg version="1.2" xmlns="http://www.w3.org/2000/svg" viewBox="0 0 4502 664" width="4502" height="664">
	<style>
		.s0 { fill: #fdfdfd } 
	</style>
	<path id=".club" fill-rule="evenodd" class="s0" d="m3826.99 71.12c-2.48 0.52-6.05 1.94-7.93 3.16-1.89 1.23-5.04 4.07-7 6.31-1.97 2.25-6.37 9.23-9.78 15.5-3.41 6.28-8.42 16.59-11.13 22.92-2.7 6.32-7.18 17.57-9.95 25-2.76 7.42-7.27 20.92-10.01 30-2.74 9.07-6.81 23.7-9.04 32.5-2.22 8.8-5.63 23.42-7.57 32.5-1.94 9.07-4.9 24.37-6.57 34-1.67 9.62-3.91 24.25-4.98 32.5-1.07 8.25-2.39 20.62-2.94 27.5-0.54 6.87-1.26 19.02-1.6 27-0.34 7.97-0.14 21.7 0.44 30.5 0.58 8.8 1.74 20.27 2.58 25.5 0.83 5.22 2.45 13.32 3.59 18 1.14 4.67 4.09 12.77 6.56 18 4.18 8.86 5.39 10.4 18.15 23.12 7.52 7.5 15.25 14.58 17.18 15.75 1.92 1.16 4.96 2.12 6.75 2.12 1.78 0 4.48-0.48 6-1.06 1.51-0.59 5.11-2.84 8-5 3.85-2.89 5.91-3.8 7.75-3.43 1.37 0.27 5.31 2.71 8.75 5.42 3.43 2.7 8.27 5.84 10.75 6.97 2.68 1.23 6.61 2.07 9.75 2.08 3.19 0.02 7.11-0.79 10-2.07 2.61-1.15 6.77-3.49 9.25-5.19 2.47-1.7 9.9-7.62 16.5-13.15 6.6-5.53 14.7-12.81 18-16.18 3.3-3.37 9.82-11 14.5-16.97 4.67-5.96 12.55-17.01 17.5-24.56 4.95-7.54 13.7-21.06 19.45-30.04 5.75-8.97 12.39-18.68 14.75-21.56 3.89-4.75 4.34-5.04 4.75-3 0.25 1.23 0.94 7.42 1.53 13.75 0.59 6.32 2.62 19.15 4.5 28.5 1.89 9.35 4.86 21.27 6.6 26.5 1.75 5.22 4.76 13.1 6.69 17.5 1.94 4.4 5.21 10.7 7.29 14 2.07 3.3 6.17 8.29 9.1 11.09 2.93 2.79 7.14 5.99 9.34 7.1 2.2 1.11 5.35 2.35 7 2.74 1.65 0.4 6.37 0.69 10.5 0.65 4.12-0.04 9.97-0.75 13-1.57 3.02-0.82 7.07-1.48 9-1.48 3.45 0.01 3.48-0.03 2.7-3.26-0.44-1.8-1.88-10.7-3.21-19.77-1.33-9.08-3.14-23.93-4.01-33-0.87-9.08-1.85-27.98-2.17-42-0.36-15.37-0.12-32.86 0.58-44 0.65-10.18 2.09-27.5 3.2-38.5 1.11-11 3.35-29.45 4.98-41 1.63-11.55 4.33-28.65 6.01-38 1.68-9.35 4.86-25.33 7.06-35.5 2.21-10.18 4.26-22.55 4.57-27.5 0.46-7.19 0.24-9.66-1.07-12.25-0.91-1.79-2.66-4.21-3.89-5.39-1.24-1.17-6.75-4.27-12.25-6.87-5.5-2.6-11.69-5.24-13.75-5.86-3.46-1.05-4.05-0.91-7.5 1.72-2.07 1.57-5.83 5.96-8.36 9.75-2.53 3.79-6.8 10.64-9.5 15.21-2.69 4.58-5.98 9.31-7.3 10.5-2.29 2.07-2.38 2.08-1.69 0.19 0.4-1.1 2.29-7.18 4.2-13.5 1.91-6.33 3.23-12.07 2.93-12.75-0.29-0.69-0.87-1.26-1.28-1.26-0.42 0-2.04 3.48-3.62 7.75-1.57 4.27-8.03 20.81-14.35 36.76-6.32 15.95-15.09 37.1-19.49 47-4.41 9.9-13.58 29.25-20.39 43-6.8 13.75-16.49 32.42-21.52 41.5-5.04 9.07-12.94 22.57-17.57 30-4.62 7.42-15.25 22.99-23.61 34.58-8.36 11.6-18.8 25.51-23.2 30.91-4.4 5.4-10.48 12.05-13.5 14.79-3.03 2.73-7.19 5.81-9.25 6.84-2.07 1.03-5.1 1.88-6.75 1.88-1.65 0-3.9-0.45-5-1-1.1-0.55-2.96-2.92-4.13-5.25-1.17-2.34-2.72-7.18-3.46-10.75-0.74-3.58-1.63-12.35-1.99-19.5-0.36-7.15-0.14-22.9 0.49-35 0.62-12.1 1.82-29.43 2.65-38.5 0.83-9.08 2.41-22.8 3.51-30.5 1.09-7.7 3.99-23.9 6.43-36 2.44-12.1 6.72-31.23 9.51-42.5 2.79-11.28 7.1-27.7 9.58-36.5 2.47-8.8 7.15-24.55 10.39-35 3.25-10.45 7.72-25.53 9.95-33.5 2.23-7.98 3.94-14.63 3.81-14.79-0.14-0.16-3.33 2.99-7.11 7-3.77 4.01-9.09 10.66-11.83 14.79-2.73 4.12-7.81 13.35-11.29 20.5-3.48 7.15-7.89 17.05-9.81 22-1.93 4.95-6 16.87-9.06 26.5-3.05 9.62-7.37 23.46-9.6 30.75-3.14 10.28-4.38 13.13-5.54 12.75-1.16-0.39-1.37-1.49-0.92-4.75 0.33-2.34 1.23-8.08 2-12.75 0.78-4.68 1.41-9.63 1.42-11 0.01-2.43-0.03-2.45-1.4-0.5-0.78 1.1-2.51 4.92-3.85 8.5l-2.45 6.5c-10.03 0.48-10.28 0.37-9.82-1.75 0.27-1.24 2.11-9.9 4.09-19.25 1.98-9.35 5.6-23.98 8.05-32.5 2.45-8.53 6.52-20.68 9.04-27 2.53-6.33 6.54-15.33 8.92-20 2.38-4.68 5.93-11.32 7.87-14.75l3.55-6.25c-4.27 1-6.63 1.71-8 2.21-1.38 0.51-3.85 1.94-5.5 3.18-1.65 1.24-7.5 7.52-13 13.96-5.5 6.44-10.12 11.69-10.25 11.68-0.14-0.02 0.94-3.3 2.39-7.28 1.46-3.99 3.97-10.18 5.59-13.75 1.61-3.58 4.65-9.43 6.75-13 2.09-3.58 6.33-9.99 9.41-14.25 3.08-4.27 5.04-7.76 4.36-7.77-0.69 0-2.15-0.19-3.25-0.41-1.1-0.22-4.03 0.02-6.5 0.54zm-39.25 122.14c0.48-1.13 0.84 0.21 1.02 3.75 0.15 3.02-0.19 5.95-0.77 6.5-0.71 0.68-1.03-0.49-1.02-3.75 0.01-2.62 0.35-5.54 0.77-6.5zm-7.26 30c0.29-1.24 1.2-2.25 2.02-2.25 0.82 0 1.48 0.78 1.47 1.75-0.01 0.96-1.47 7.26-3.25 14-1.78 6.74-3.57 12.25-3.98 12.25-0.42 0-0.75-0.57-0.75-1.25 0-0.69 0.89-5.98 1.97-11.75 1.09-5.78 2.22-11.52 2.52-12.75zm160.53 106.04c8.44-14.96 15.38-27.07 15.42-26.91 0.03 0.16-2.47 6.78-5.57 14.71-3.1 7.92-7.77 19.13-10.37 24.91-2.6 5.77-8.12 17.25-12.25 25.5-4.13 8.25-12.9 24.9-19.48 37-6.58 12.1-14.73 26.68-18.12 32.4-3.99 6.74-8.64 12.91-13.22 17.5-3.89 3.9-9.74 8.52-13 10.25-3.27 1.74-8.3 3.87-11.18 4.75-2.89 0.88-5.25 1.37-5.25 1.1 0-0.28 3.87-5.12 8.62-10.75 4.74-5.64 12.67-15.65 17.62-22.25 4.95-6.6 13.17-18.3 18.26-26 5.1-7.7 14.64-23.23 21.22-34.5 6.57-11.28 18.85-32.75 27.3-47.71zm-683.52-241.71c-3.85 0.86-11.28 3.23-16.5 5.28-5.23 2.04-13.26 5.95-17.85 8.67-4.6 2.73-11.8 7.72-16 11.09-4.21 3.37-12.6 11.25-18.65 17.51-6.05 6.26-14.75 15.88-19.32 21.37-4.57 5.5-11.09 13.94-14.5 18.75-3.4 4.82-9.23 13.6-12.95 19.5-3.72 5.91-9.85 17.05-13.63 24.75-3.77 7.7-8.11 17.15-9.63 21-1.53 3.85-4.52 12.17-6.66 18.5-2.13 6.32-5.2 16.9-6.82 23.5-1.61 6.6-3.83 17.62-4.93 24.5-1.1 6.87-2.5 17.45-3.1 23.5-0.61 6.05-1.09 21.12-1.08 33.5 0.02 15.88 0.49 25.14 1.61 31.5 0.86 4.95 2.66 12.6 3.98 17 1.33 4.4 4.49 12.95 7.03 19 2.54 6.05 6.57 13.92 8.94 17.5 2.38 3.57 7.68 9.65 11.78 13.5 4.11 3.85 11.03 9.01 15.37 11.48 4.35 2.47 11.96 5.87 16.91 7.56 4.95 1.7 19.01 5.53 31.25 8.52 12.3 3 22.1 5.88 21.91 6.44-0.2 0.55-2.34 2.02-4.76 3.27-3.17 1.63-6.08 2.26-10.4 2.24-3.3-0.01-8.82 0.32-12.27 0.73-3.95 0.48-6.25 1.22-6.25 2.01 0.01 0.68 1.48 2.84 3.27 4.78 2.86 3.11 4.49 3.83 13.75 5.99 5.77 1.35 11.51 2.46 12.75 2.47 1.23 0 5.51 1.57 9.5 3.49 3.98 1.91 10.17 4.22 13.75 5.12 4.85 1.23 9.02 1.51 16.5 1.1 5.97-0.32 14.02-1.61 20-3.19 5.5-1.46 14.95-4.68 21-7.17 6.05-2.48 16.17-7.15 22.5-10.37 6.32-3.23 15.32-8.42 20-11.54 4.67-3.12 12.06-8.66 16.42-12.31 4.35-3.64 11.93-10.9 16.85-16.12 4.91-5.23 12.65-14.45 17.2-20.5 4.56-6.05 11.74-16.18 15.96-22.5 4.22-6.33 13.52-21.18 20.66-33 8.61-14.27 13.18-22.85 13.58-25.5 0.49-3.19 0.06-5.03-2.06-9-1.47-2.75-4.17-6.8-6-9l-3.33-4c-8.14 17.1-9.71 19.43-11.03 19.23-1.34-0.2-1.95-1.69-2.55-6.25-0.61-4.54-0.31-8.58 1.25-16.73 1.46-7.68 1.76-11.33 1.05-12.75-0.55-1.1-2.8-2.9-5-4-2.2-1.1-4.57-2.01-5.25-2.01-0.74 0-1.76 2.57-2.49 6.25-0.69 3.47-3.84 11.6-7.08 18.26-3.22 6.6-8.49 16.27-11.73 21.5-3.24 5.22-9.11 13.77-13.04 19-3.93 5.22-10.97 13.32-15.64 18-4.67 4.67-10.47 9.6-12.89 10.95-4.18 2.33-4.31 2.35-2.88 0.32 0.82-1.16 10.01-14.87 20.41-30.45 10.41-15.58 20.52-31.25 22.46-34.82 1.95-3.58 5.48-11.45 7.84-17.5 2.36-6.05 4.29-12.02 4.29-13.25 0-1.24-1.35-3.6-3-5.25-2.34-2.34-3.89-3-7-3-2.96 0-4.81 0.72-7.08 2.75-1.97 1.75-4.14 5.55-6 10.5-1.7 4.49-6.35 12.89-11.1 20-4.49 6.73-11.57 16.75-15.72 22.25-4.16 5.5-11.44 14.5-16.19 20-4.75 5.5-13.76 14.96-20.02 21.02-6.27 6.06-14.99 13.9-19.39 17.41-4.4 3.52-12.73 9.54-18.5 13.37-5.78 3.84-16.58 9.96-24 13.61-7.43 3.66-18.68 8.37-25 10.48-10.85 3.61-12.07 3.8-21.5 3.45-9.1-0.35-10.7-0.72-17.75-4.11-4.27-2.05-10.06-5.87-12.88-8.48-2.82-2.62-7.06-7.45-9.42-10.75-2.36-3.3-5.9-9.38-7.86-13.5-1.96-4.13-4.48-11.1-5.6-15.5-1.12-4.4-2.32-11.6-2.68-16-0.35-4.4-0.34-8.79 0.02-9.75 0.5-1.31 2.73 1.63 8.76 11.5 4.46 7.28 10.86 17.07 14.23 21.75 3.37 4.67 8.17 10.56 10.65 13.07 2.62 2.64 6.21 5.1 8.53 5.82 2.2 0.69 4.07 1.11 4.15 0.93 0.09-0.18-1.8-4.37-4.2-9.32-2.39-4.95-6.14-14.4-8.33-21-2.19-6.6-4.69-15.49-5.56-19.75-0.86-4.27-2.06-12.37-2.66-18-0.61-5.76-0.79-14.86-0.42-20.75 0.37-5.78 1.31-14.33 2.09-19 0.79-4.68 3.24-14.13 5.44-21 2.21-6.88 6.46-17.45 9.43-23.5 3.17-6.44 5.24-9.76 4.99-8-0.23 1.65-1.78 11.32-3.43 21.5-1.66 10.17-3.45 25.25-3.97 33.5-0.6 9.45-0.61 20.54-0.01 30 0.52 8.25 1.86 20.4 2.99 27 1.12 6.6 3.21 16.72 4.63 22.5 1.58 6.4 4.2 13.55 6.72 18.34 2.28 4.31 4.92 8.69 5.89 9.75 0.96 1.05 2.53 1.91 3.5 1.92 0.96 0.01 2.8 0.35 4.1 0.75 2.34 0.73 2.33 0.67-1.34-9.26-2.04-5.5-4.97-13.83-6.51-18.5-1.54-4.68-3.86-15.48-5.16-24-2.05-13.53-2.34-19.13-2.34-44 0.01-22.71 0.38-30.84 1.84-40 1-6.33 3.55-18.25 5.65-26.5 2.11-8.25 5.4-19.28 7.32-24.5 1.91-5.23 5.13-13.33 7.14-18 2.02-4.68 6.26-13.45 9.43-19.5 3.17-6.05 8.65-15.66 12.19-21.34 3.53-5.69 10.85-16.26 16.25-23.5 5.41-7.24 11.04-14.44 12.5-15.99 1.47-1.56 5.6-4.78 9.18-7.15 3.57-2.38 10.77-6.16 16-8.4 5.22-2.24 10.06-4.09 10.75-4.1 0.68-0.01 3.69 4.14 6.67 9.23 2.99 5.08 6.76 12.62 8.38 16.75 1.62 4.12 3.64 9.97 4.5 13 0.86 3.02 2.33 9.1 3.27 13.5 1.29 5.96 1.75 13.21 1.82 28.5 0.1 18.91 0.27 20.84 2.29 25 1.2 2.47 5.14 7.76 8.75 11.75 3.61 3.98 7.02 7.25 7.57 7.25 0.55 0 2.81-3.72 5.03-8.25 2.22-4.54 5.36-12.53 6.96-17.75 1.61-5.23 3.71-13.55 4.68-18.5 1.26-6.45 1.74-13.55 1.68-25-0.06-12.04-0.6-18.61-2.18-26.5-1.16-5.78-1.9-10.62-1.64-10.75 0.26-0.14 1.99 2.56 3.85 6 1.86 3.43 4.52 9.4 5.91 13.25 1.39 3.85 3.06 10.82 3.7 15.5 0.9 6.43 0.91 11.17 0.05 19.5-0.63 6.05-2.25 15.95-3.6 22-1.35 6.05-3.35 13.81-4.45 17.25l-1.99 6.25c6.43 1.63 8.34 1.53 10.5 0.61 1.65-0.7 5.25-3.8 8-6.87 2.75-3.08 6.46-7.99 8.25-10.92 1.79-2.93 4.69-9.37 6.43-14.32 2.8-7.92 3.24-10.58 3.6-22 0.35-10.78 0.06-14.5-1.68-21.75-1.16-4.82-3.63-11.79-5.49-15.5-1.85-3.72-5.31-9.23-7.67-12.25-2.37-3.03-7.26-8.37-10.87-11.88-3.62-3.5-10.17-8.74-14.57-11.64-4.4-2.9-11.83-7.18-16.5-9.51-4.68-2.34-13.68-7.97-20-12.51-6.33-4.54-13.98-9.49-17-11-3.03-1.51-8.65-3.85-12.5-5.19-5.17-1.8-9.76-2.54-17.5-2.84-7.19-0.28-12.71 0.09-17.5 1.15zm7 39.22c4.4-1.53 9.46-2.78 11.25-2.79 3.12-0.01 2.95 0.2-4.26 5.24-4.13 2.88-9.42 6.62-11.75 8.3-2.33 1.68-7.17 4.02-10.74 5.2-4.29 1.41-8.21 3.65-11.5 6.54-2.75 2.42-14.73 15.83-26.62 29.8-11.89 13.97-23.72 27.66-30.94 35.41l1.58-4c0.87-2.2 3.22-6.93 5.23-10.5 2.01-3.58 5.65-9.43 8.1-13 2.45-3.58 7.2-9.87 10.55-13.98 3.35-4.11 9.95-11.31 14.66-16 4.71-4.69 11.91-11.03 16-14.09 4.09-3.07 10.36-7.32 13.94-9.46 3.57-2.15 10.1-5.15 14.5-6.67zm91.48 293.49c1.87-1.81 3.75-3.29 4.18-3.29 0.43 0-0.67 1.79-2.44 3.98-1.77 2.19-3.56 3.99-3.97 4-0.42 0.01-0.85-0.3-0.96-0.69-0.11-0.38 1.32-2.18 3.19-4zm-18.13 20.27c3.5-3.58 6.87-6.25 7.5-5.92 0.69 0.36-1.56 3.27-5.57 7.23-3.69 3.64-7.06 6.31-7.5 5.92-0.43-0.39 2.08-3.64 5.57-7.23zm-74.59 48.86c6.09-3.9 11.34-6.94 11.66-6.77 0.31 0.17-0.55 2.45-1.92 5.08-1.68 3.19-3.66 5.32-6 6.44-1.93 0.92-6.27 2.05-9.65 2.5-3.38 0.46-5.92 0.6-5.65 0.33 0.27-0.28 5.48-3.69 11.56-7.58zm242.43-397.17c-0.29 1.78-3.28 18.77-6.65 37.75-3.36 18.97-7.43 41.7-9.03 50.5-1.6 8.8-4.05 24.55-5.43 35-1.38 10.45-3.24 25.52-4.12 33.5-0.88 7.97-2.48 21.02-3.55 29-1.07 7.97-3.08 23.27-4.46 34-1.38 10.72-4.53 32.55-7 48.5-2.48 15.95-7 43.62-10.06 61.5-4.37 25.5-5.56 34.76-5.55 43 0.01 5.77-0.67 16.12-1.51 23-0.85 7.01-1.26 15.24-0.93 18.75 0.33 3.43 1.58 8.83 2.78 12 1.53 4.03 3.84 7.39 7.75 11.25 3.07 3.02 8.01 7.52 10.98 10 2.97 2.47 7.35 7.53 9.74 11.25 3.15 4.89 6.89 8.77 13.6 14.12 5.08 4.06 11.27 8.44 13.75 9.74 3.8 2 5.96 2.36 14 2.37l9.5 0.02c20.15-9.62 28.47-13.39 31.5-14.58 3.02-1.19 10.67-3.92 17-6.07 6.32-2.16 15.77-4.99 21-6.3 5.22-1.32 14.22-3.32 20-4.44 5.77-1.13 15.45-2.71 21.5-3.51 6.05-0.81 15.05-1.74 20-2.07 4.95-0.33 20.02-1.03 33.5-1.56 22.34-0.89 24.89-1.17 28.93-3.22 2.82-1.44 5.08-3.53 6.23-5.75 1.74-3.4 1.74-3.56-0.12-5.5-1.05-1.1-3.32-5.15-5.05-9-1.72-3.85-3.89-7.84-4.82-8.87-0.92-1.03-2.57-2.21-3.67-2.62-1.79-0.66-2.01-1.68-2.05-9.63-0.03-6.65-0.5-9.76-1.89-12.38-1.01-1.93-3.98-5.98-6.58-9-2.61-3.03-6.19-7.98-7.96-11-1.78-3.03-3.97-6.34-4.87-7.36-0.91-1.02-3.23-2.66-5.15-3.63-1.93-0.98-8.68-2.76-15-3.96-6.74-1.27-14.2-3.43-18-5.2l-6.5-3.03c-42.85 0.84-55.52 1.58-62 2.63-5.5 0.9-14.28 2.51-19.5 3.58-5.23 1.08-14.9 2.76-21.5 3.74-6.6 0.98-13.58 1.54-15.5 1.25-3.27-0.49-3.52-0.79-3.8-4.52-0.16-2.2 3.08-26.05 7.2-53 4.12-26.95 9.09-60.03 11.04-73.5 1.94-13.48 5.1-35.75 7-49.5 1.91-13.75 5.54-38.05 8.07-54 2.53-15.95 5.1-34.18 5.72-40.5 0.82-8.43 0.82-15.38 0.01-26-0.79-10.49-1.75-16.3-3.43-21-1.29-3.58-3.38-7.85-4.66-9.5-1.27-1.65-4.19-4.29-6.48-5.86-2.3-1.57-5.34-4.72-6.75-7-1.42-2.28-3.35-4.82-4.3-5.64-0.94-0.83-1.69-1.28-1.66-1 0.03 0.27-0.85 4.1-1.96 8.5-1.11 4.4-2.47 13.85-3.03 21-0.55 7.15-2.12 19.75-3.49 28-1.37 8.25-4.02 21.52-5.88 29.5-1.86 7.97-4.87 19.9-6.68 26.5-2.92 10.62-3.39 11.65-4.1 9-0.55-2.06 1.15-16.91 5.36-47 5.1-36.51 6.17-46.47 6.23-58.5 0.07-10.9-0.29-15.32-1.41-17.81-0.83-1.81-2.18-3.51-3-3.77-0.83-0.25-3.19 0.22-5.25 1.06l-3.75 1.52c-2.33-6.2-3.18-8-3.39-8-0.21 0-0.63 1.46-0.92 3.25zm773.31 7.8c-4.13 0.51-11.1 1.66-15.5 2.55-4.4 0.89-11.83 2.89-16.5 4.45-4.68 1.55-11.43 4.15-15 5.78-3.58 1.62-15.28 9.47-26 17.43-10.73 7.97-19.84 14.32-20.25 14.12-0.42-0.21-1.81-2.75-3.1-5.63-1.29-2.89-3.46-6.6-4.83-8.25-1.36-1.65-3.8-3.54-5.4-4.19-2.57-1.04-3.21-0.92-5.25 1-2.17 2.03-2.29 2.71-1.71 9.69 0.33 4.12 0.33 8.4-0.03 9.5-0.53 1.67-0.97 1.26-2.67-2.5-1.11-2.48-2.31-7.38-2.65-10.9-0.5-5.22-1.07-6.76-3.11-8.36-1.74-1.36-3.34-1.77-5.25-1.35-1.88 0.41-3.35 1.8-4.62 4.36-1.03 2.06-4.15 13.42-6.95 25.25-2.79 11.82-6.69 30.05-8.67 40.5-1.98 10.45-5.13 28.22-6.99 39.5-1.86 11.27-4.53 29.72-5.94 41-1.4 11.27-3.68 32.65-5.06 47.5-1.38 14.85-3.47 35.55-4.63 46-1.71 15.24-2.25 27.98-2.76 64.5-0.53 38.04-0.88 45.86-2.13 47.72-0.83 1.22-2.52 2.68-3.75 3.25-1.24 0.56-2.82 1.04-3.5 1.05-0.69 0.01-2.6-1.35-4.25-3.02-1.65-1.68-3.34-3.04-3.75-3.02-0.42 0.01-1.77 1.81-3 4.01l-2.25 3.99c-12.69 0.02-13.45 0.23-13.05 1.77 0.25 0.96 0.76 3.1 1.14 4.75 0.38 1.65 1.47 4.57 2.43 6.5 0.96 1.92 5.68 9.12 10.49 16 4.81 6.87 10.83 14.92 13.37 17.89 2.54 2.96 8.67 8.08 13.62 11.37 4.95 3.29 15.75 9.27 24 13.31 8.25 4.03 19.27 8.72 24.5 10.42 5.22 1.71 14 4.06 19.5 5.24 8.04 1.72 13.41 2.14 27.5 2.14 12.25 0 20.34-0.52 27-1.73 5.22-0.95 12.76-2.61 16.75-3.69 3.98-1.07 13.64-4.77 21.45-8.2 10.44-4.6 15.41-7.39 18.75-10.55 3.84-3.63 4.16-4.2 2.05-3.64-1.38 0.36-6.77 2.97-11.98 5.8-5.21 2.82-11.96 6.13-15 7.33-3.04 1.21-6.54 2.23-7.77 2.25-1.24 0.03-2.25-0.39-2.25-0.94 0-0.55 1.46-2.07 3.25-3.38 1.78-1.31 13.15-8.67 25.25-16.35 12.1-7.68 29.53-18.98 38.75-25.12 9.21-6.13 18.55-11.6 20.75-12.15 2.57-0.65 4.62-1.98 5.75-3.73 0.96-1.5 3.1-3.97 4.75-5.49 1.65-1.52 5.25-3.9 8-5.29 2.75-1.4 5.14-2.19 5.33-1.77 0.18 0.43-0.23 2.58-0.91 4.78-0.92 2.97-4.47 7.28-13.83 16.77l-12.59 12.78c6.44-0.09 7.83-1 12.31-5.82 2.92-3.16 9.73-10.68 15.13-16.73 5.4-6.05 13.02-15.28 16.94-20.5 4.85-6.48 8.73-13.17 12.17-21 2.82-6.42 6.75-13.49 8.89-16 3.2-3.76 4.13-5.91 5.57-13 1.33-6.49 1.62-11.47 1.23-21-0.28-6.88-1.23-15.09-2.13-18.25-0.89-3.17-3.4-9.47-5.58-14-2.19-4.54-5.9-11.86-8.25-16.26-2.36-4.41-6.22-12.06-8.59-17-2.37-4.95-7.19-13.04-10.72-17.99-3.52-4.95-11.71-14.26-18.19-20.68l-11.78-11.68c8.7-11.35 14.21-19.48 17.86-25.39 3.65-5.92 10.85-18.52 16-28 5.14-9.49 10.14-19.5 11.1-22.25 1.02-2.93 1.77-8.12 1.81-12.5 0.05-4.68-0.6-9.57-1.72-13-0.99-3.03-5.53-13.38-10.08-23-4.56-9.63-9.72-21.1-11.47-25.5-1.75-4.4-4.83-10.45-6.84-13.45-2.02-2.99-5.91-7.21-8.66-9.36-2.75-2.16-7.25-5.05-10-6.42-2.75-1.37-6.35-3.51-8-4.74-1.65-1.24-4.8-3.16-7-4.29-2.2-1.12-6.7-2.78-10-3.69-3.74-1.02-11.29-1.79-20-2.04-7.7-0.21-17.38 0.03-21.5 0.54zm-0.87 21.1c-0.23-0.72 0.9-1.14 3-1.12 3.21 0.03 3.27 0.1 1.37 1.52-1.1 0.81-2.45 1.32-3 1.11-0.55-0.2-1.17-0.88-1.37-1.51zm-33.63 7.3c3.3-0.71 6.56-1.33 7.25-1.37 0.68-0.05 1.25 0.14 1.25 0.42 0 0.27-7.88 4.55-17.5 9.5-15.6 8.02-17.5 9.27-17.5 11.5 0 1.98-2.72 4.75-13.25 13.49-7.29 6.05-13.48 11-13.75 11-0.28 0-0.39-2.02-0.25-4.49 0.24-4.32 0.58-4.78 8.5-11.37 4.53-3.78 12.52-10.13 17.75-14.11 5.22-3.98 12.2-8.6 15.5-10.26 3.3-1.66 8.7-3.6 12-4.31zm65.5 31.73c9.07-2.18 16.83-4.01 17.25-4.07 0.41-0.06 1.73 1.35 2.94 3.14 1.2 1.78 2.59 4.82 3.08 6.75 0.77 3.03 0.41 4.43-2.71 10.5-1.98 3.85-7.76 12.7-12.83 19.66-5.08 6.97-13.33 17.32-18.34 23-5 5.69-13.33 14.05-18.5 18.59-5.16 4.53-12.99 10.96-17.39 14.28-4.4 3.32-11.15 7.61-15 9.52-3.87 1.92-12.38 4.77-19 6.35-6.6 1.59-21.1 5.07-32.21 7.74-11.11 2.67-20.42 4.63-20.69 4.36-0.27-0.28-0.03-5.23 0.53-11 0.55-5.78 2.37-17.48 4.05-26 1.67-8.53 3.77-16.59 4.67-17.92 0.91-1.33 8.4-7.46 16.65-13.63 8.25-6.17 19.72-14.3 25.5-18.08 5.77-3.77 16.35-9.82 23.5-13.44 7.9-4.01 18.68-8.39 27.5-11.19 7.97-2.54 21.92-6.39 31-8.56zm-80.1 10.13c3.56-1.21 6.72-1.99 7.03-1.75 0.31 0.24 0.34 0.6 0.07 0.8-0.28 0.2-10.18 7.98-22 17.29-11.83 9.3-22.07 17.24-22.75 17.63-0.89 0.51-1.33-0.34-1.5-2.93-0.23-3.24 0.34-4.21 5.09-8.75 2.94-2.81 7.75-6.9 10.69-9.1 2.95-2.2 7.95-5.58 11.13-7.5 3.17-1.93 8.68-4.49 12.24-5.69zm109.06 31.94c0.82-3.19 1.59-4.25 3.07-4.25 1.35 0 1.84 0.54 1.57 1.75-0.21 0.96-1 3.9-1.75 6.53-0.74 2.63-1.8 4.62-2.35 4.42-0.55-0.2-1.15-1.22-1.32-2.28-0.18-1.06 0.17-3.84 0.78-6.17zm-7.44 20.2c1.53-1.35 2.95-2.45 3.16-2.45 0.2 0 0.12 1.46-0.19 3.25-0.31 1.78-1.81 4.6-3.35 6.25-1.53 1.65-4.33 5.63-6.21 8.86-1.89 3.22-5.57 7.83-8.18 10.25-2.62 2.41-5.2 4.39-5.75 4.39-0.63 0-0.57-0.85 0.15-2.25 0.63-1.24 2.81-4.73 4.84-7.75 2.03-3.03 5.67-7.22 8.1-9.31 2.42-2.1 4.52-4.24 4.66-4.75 0.13-0.52 0.19-1.64 0.12-2.49-0.08-0.85 1.12-2.65 2.65-4zm-196.03 67.05l0.32 3c0.17 1.65 0.17 4.57-0.32 10l-1.75-3.25c-1.66-3.1-1.66-3.41 0-6.5zm168.51 43.81c2.18-0.84 6.14-1.21 10.5-0.97 4.69 0.25 9.72 1.41 15.25 3.52 7.39 2.81 8.5 3.58 10.66 7.39 1.32 2.33 2.95 6.95 3.62 10.25 0.68 3.37 0.94 8.51 0.59 11.75-0.34 3.16-1.5 8.11-2.58 11-1.07 2.88-4.12 8.17-6.77 11.75-2.66 3.57-8.92 12.8-13.92 20.5-5 7.7-9.76 15.35-10.58 17-0.83 1.65-1.79 5.36-2.77 13.5l9.25-5.95c5.09-3.27 9.36-5.75 9.5-5.5 0.14 0.24-0.99 2.77-2.5 5.6-1.51 2.84-5.49 8.12-8.84 11.75-3.35 3.63-9.43 9.15-13.5 12.27-4.08 3.13-11.46 8.21-16.41 11.31-4.95 3.09-9.11 5.15-9.25 4.57-0.14-0.58 0.49-2.52 1.4-4.3 0.91-1.79 2.94-4.83 4.51-6.75 1.57-1.93 3.46-5.3 4.22-7.5 0.98-2.87 2.28-4.43 4.61-5.5 2.42-1.12 4.11-3.22 6.63-8.25 1.86-3.72 3.15-6.98 2.88-7.25-0.28-0.28-6.69 4.33-14.25 10.24-7.56 5.91-20.05 14.96-27.75 20.12-7.7 5.15-20.3 12.43-28 16.16-7.7 3.74-19.18 8.58-25.5 10.76-6.33 2.17-16.68 5.17-23 6.65-6.33 1.47-12.06 2.43-12.75 2.13-0.69-0.31-2.8-3.83-4.7-7.81-1.9-3.99-4.15-9.95-5.01-13.25-1.25-4.83-1.55-12.29-1.55-38.25 0.01-29.69 0.16-32.63 1.96-37 1.07-2.62 2.42-6.55 2.98-8.75 0.57-2.2 1.48-10.53 2.02-18.5 0.55-7.98 1.27-15.85 1.6-17.5 0.33-1.65 1.24-3.79 2.03-4.75 1.32-1.64 1.81-1.46 7.17 2.56 3.16 2.38 8.45 5.96 11.75 7.97 5.47 3.33 6.65 3.65 13.5 3.67 4.12 0.02 12.22-0.68 18-1.55 5.77-0.87 14.32-2.69 19-4.03 4.67-1.35 16.15-6.22 25.5-10.84 9.35-4.61 21.5-10.29 27-12.63 5.5-2.33 11.57-4.84 13.5-5.59zm-182.43 49.19c0.52-4.35 0.92-5.45 1.47-4 0.42 1.1 1.32 6.05 1.99 11 0.76 5.56 0.97 12.62 0.54 18.5-0.37 5.22-1.35 12.65-2.18 16.5-0.82 3.85-1.7 7.22-1.94 7.5-0.23 0.27-0.63-0.18-0.87-1-0.25-0.83-1.2-4.2-2.13-7.5-1.56-5.57-1.76-5.82-2.67-3.5-0.55 1.37-1.35 7-1.79 12.5-0.67 8.42-0.76 6.92-0.43-29l3.65-7.5c2.26-4.64 3.93-9.8 4.36-13.5zm227.93-4.84c0.46-0.36 0.98-0.66 1.16-0.66 0.19 0 0.34 1.8 0.34 4 0 2.33-0.42 3.79-1 3.5-0.55-0.28-1.08-1.78-1.17-3.34-0.09-1.56 0.21-3.13 0.67-3.5zm4.23 92.2c6.07-6.37 7.81-7.72 8.09-6.25 0.19 1.04-0.35 3.69-1.19 5.89-0.84 2.2-3.69 6.05-6.33 8.56-2.64 2.5-5.53 4.98-6.43 5.5-0.9 0.51-1.98 2.51-3.18 7.94l3.65-0.75c3.66-0.75 3.66-0.75 3.66 2.75 0 1.92-0.34 3.49-0.75 3.48-0.41-0.01-2.1-1.35-6.75-5.95l-5 3.56c-2.75 1.96-5.79 3.98-6.75 4.48-1.65 0.87-1.66 0.7-0.2-2.82 0.86-2.07 2.34-5.1 3.3-6.75 0.95-1.65 3.39-3.9 5.4-5 2.02-1.1 3.91-3.02 4.21-4.25 0.3-1.24 4.02-5.91 8.27-10.39zm21.22-2.97c-0.22-1.22 0.3-1.5 2.13-1.14 2.38 0.47 2.39 0.54 0.92 4.33-1.5 3.85-1.5 3.85-2.13 1.13-0.35-1.49-0.76-3.44-0.92-4.32zm-3.95 11.11c1.1-1.1 2.59-2 3.32-2 0.91 0 1.19 1.01 0.9 3.25-0.23 1.78-1.05 4.26-1.82 5.5-0.77 1.23-2.08 2.25-2.9 2.25-1.05 0-1.5-1.06-1.5-3.5 0-2.17 0.76-4.27 2-5.5zm-53.57 30c3.96-4.11 5-4.77 5.3-3.31 0.2 0.99-0.33 2.82-1.18 4.06-0.85 1.23-3.35 3.15-5.55 4.25-2.2 1.1-4.21 2.56-4.46 3.25-0.25 0.68-2.84 3.12-5.75 5.41-2.91 2.29-8.85 6.07-13.2 8.4-5.99 3.2-7.66 3.77-6.88 2.34 0.57-1.05 3.25-3.93 5.96-6.4 2.71-2.48 8.5-6.39 12.88-8.69 4.75-2.5 9.93-6.25 12.88-9.31zm-1310.93-0.06c-1.65 0.39-3.9 1.18-5 1.75-1.1 0.58-3.24 2.45-4.75 4.18-1.51 1.72-3.38 5.26-4.14 7.88-0.77 2.61-3.56 10.15-6.2 16.75-3.95 9.89-4.87 13.4-5.24 20-0.38 6.91-0.11 8.74 2 13.5 1.35 3.02 4.11 7.18 6.14 9.25 2.03 2.06 5.94 4.87 8.69 6.25 2.75 1.37 7.59 3.17 10.75 4 3.16 0.83 8.45 1.51 11.75 1.52 3.3 0 7.57-0.52 9.5-1.16 1.92-0.65 5.3-2.44 7.5-3.99 2.2-1.55 5.67-4.97 7.71-7.6 2.04-2.62 5.04-7.92 6.67-11.77 1.63-3.85 3.52-9.7 4.21-13 1-4.8 1-8.1 0-16.5-0.68-5.78-1.44-11.52-1.67-12.75-0.28-1.47-1.38-2.47-3.17-2.88-1.51-0.34-6.8-2.79-11.75-5.44-4.95-2.65-11.93-5.91-15.5-7.24-3.58-1.33-8.3-2.65-10.5-2.94-2.2-0.28-5.35-0.2-7 0.19zm1294.65 34.39c-3.37 2.46-3.93 3.23-2.5 3.47 1.02 0.16 2.86-0.4 4.1-1.25 1.24-0.86 2.62-2.45 3.08-3.55 0.46-1.1 0.57-1.97 0.25-1.92-0.32 0.04-2.54 1.5-4.93 3.25z"/>
	<path id="boys" fill-rule="evenodd" class="s0" d="m2047 68.59c-7.43 0.8-17.78 2.59-23 3.99-5.22 1.39-13.32 4.42-18 6.71-4.68 2.3-11.87 6.7-16 9.79-4.12 3.08-10.88 9.16-15.02 13.51-4.14 4.35-10.21 11.96-13.49 16.91-3.28 4.95-8.08 13.72-10.65 19.5-2.58 5.77-6.01 15.22-7.64 21-1.63 5.77-3.58 14.63-4.33 19.69-0.75 5.05-1.04 9.55-0.63 10 0.41 0.44 1.67-0.09 2.79-1.19l2.04-2-0.02 10c-3.91-3.88-5.25-4.78-5.5-4.5-0.26 0.27-0.94 2.97-1.52 6-0.58 3.02-1.03 8.42-1.01 12 0.03 3.57 0.7 10.1 1.5 14.5 0.79 4.4 1.45 10.14 1.46 12.75 0.01 2.61-0.5 5.76-1.13 7-0.63 1.24-3.67 4.95-6.76 8.25-3.08 3.3-6.66 8.25-7.94 11-1.68 3.59-2.58 7.96-3.2 15.5-0.47 5.78-1.98 14.32-3.36 19-1.37 4.67-3.39 12.32-4.48 17-1.09 4.67-2.97 15.03-4.17 23-1.67 11.13-2.18 19.15-2.2 34.5-0.02 11 0.49 24.05 1.14 29 0.64 4.95 2.1 13.72 3.25 19.5 1.14 5.78 3.57 15 5.4 20.5 1.84 5.5 5.1 13.82 7.25 18.5 2.16 4.67 6.85 13.45 10.44 19.5 3.59 6.05 9.24 14.6 12.55 19 3.31 4.4 9.33 11.33 13.38 15.4 4.04 4.07 10.95 10.41 15.35 14.1 4.4 3.69 15.43 12.17 24.5 18.84 9.08 6.67 18.52 12.81 21 13.65 2.47 0.83 9.9 2.05 16.5 2.71 9.38 0.93 14.3 0.92 22.5-0.04 5.96-0.7 14.28-2.51 19.25-4.19 4.81-1.64 12.24-4.72 16.5-6.86 4.26-2.14 10.45-5.89 13.75-8.33 3.3-2.44 8.65-6.88 11.89-9.86 3.24-2.98 8.67-8.8 12.08-12.92 3.4-4.13 9.33-12 13.18-17.5 3.85-5.5 10.09-14.95 13.86-21 3.78-6.05 10.63-17.75 15.23-26 4.59-8.25 12.12-22.43 16.72-31.5 4.6-9.08 10.71-22.35 13.58-29.5 2.86-7.15 6.99-18.4 9.17-25 2.17-6.6 5.46-18.3 7.3-26 1.84-7.7 3.81-17.38 4.38-21.5 0.56-4.13 1.31-11.33 1.65-16 0.34-4.68 0.13-13.22-0.47-19-0.6-5.78-2.87-17.7-5.04-26.5-2.17-8.8-5.73-21.18-7.91-27.5-2.31-6.68-13.32-30.77-26.3-57.5-14.73-30.34-24.07-48.38-27.46-53-2.82-3.85-7.78-9.48-11.01-12.5-3.24-3.03-8.58-7.58-11.87-10.13-3.29-2.54-10.26-7.23-15.48-10.42-5.22-3.19-13.32-7.6-18-9.79-4.68-2.19-13.68-5.96-20-8.39-7.06-2.71-13.62-4.55-17-4.77-3.03-0.19-11.57 0.3-19 1.09zm48.5 72.36c2.2-0.48 8.61-0.66 14.25-0.41 5.64 0.25 11.49 0.94 13 1.52 1.51 0.59 4.03 2.28 5.59 3.75 1.57 1.48 5.11 6.51 7.87 11.19 2.77 4.67 6.78 11.99 8.91 16.25 2.13 4.26 5.19 11.69 6.78 16.5 2.05 6.19 3.41 13.44 4.63 24.75 1.2 11.15 1.57 20.25 1.2 30-0.29 7.7-1.24 16.92-2.11 20.5-0.87 3.57-5.21 16.85-9.64 29.5-4.43 12.65-10.56 29.3-13.62 37-3.06 7.7-8.78 20.28-12.71 27.96-3.93 7.68-10.3 18.55-14.15 24.16-3.85 5.61-11.28 15.74-16.5 22.5-5.22 6.76-14.9 17.87-21.5 24.68-6.6 6.82-14.36 13.92-17.25 15.8-2.89 1.87-5.59 3.23-6 3.02-0.41-0.21-2.62-2.8-4.91-5.75-2.28-2.95-4.69-7.4-5.34-9.87-0.65-2.47-4.69-15.08-8.98-28-4.28-12.93-9-28.45-10.49-34.5-1.49-6.05-3.56-16.85-4.61-24-1.05-7.15-2.41-21.33-3.03-31.5-0.85-13.97-0.83-24.62 0.07-43.5 0.66-13.75 1.8-29.05 2.54-34 0.74-4.95 2.96-13.95 4.92-20 1.96-6.05 5.72-15.28 8.35-20.5 2.64-5.23 6.56-12.2 8.72-15.5 2.16-3.3 6.65-8.71 9.97-12.02 3.32-3.32 8.74-7.87 12.04-10.12 3.3-2.25 9.71-5.95 14.25-8.23 4.54-2.27 11.74-5.52 16-7.22 4.26-1.7 9.55-3.48 11.75-3.96zm-126.36 243.8c0.62-2.06 1.37-3.75 1.68-3.75 0.31 0 4.02 5.74 8.24 12.75 4.22 7.01 15.37 25.57 24.77 41.25 9.41 15.67 17.13 28.95 17.16 29.5 0.03 0.55-1.19 2.19-2.72 3.64-1.52 1.45-4.12 3.3-5.77 4.13-1.65 0.82-5.03 1.82-7.5 2.23-2.47 0.4-8.32 0.39-13-0.01-7.82-0.68-8.72-0.99-11.3-3.87-1.54-1.71-3.43-5.37-4.19-8.12-0.77-2.75-2.35-9.72-3.52-15.5-1.16-5.78-2.76-16.58-3.54-24-0.79-7.43-1.43-18.22-1.42-24 0-5.78 0.5-12.19 1.11-14.25zm-290.14-308.63c-6.32 0.45-16.45 1.54-22.5 2.41-6.05 0.88-17.64 2.69-25.75 4.03-10.86 1.8-17.19 3.45-24 6.26-5.09 2.1-9.03 4.24-8.75 4.75 0.28 0.51 4.55 0.84 9.5 0.73l9-0.19c-12.91 6.38-18.12 8.15-21.5 8.54-3.29 0.37-7.71 0.1-11-0.68l-5.5-1.3c-16.28 8.18-23.25 12.09-26 13.95-2.75 1.86-5.9 4.06-7 4.87-1.1 0.82-1.66 1.72-1.25 2 0.41 0.28 2.21-0.82 4-2.45 1.9-1.72 4.4-2.97 6-3 1.51-0.02 3.03 0.52 3.37 1.21 0.34 0.69 0.34 2.26 0 3.5-0.34 1.24-3.36 5.06-6.71 8.5-3.35 3.44-7.46 8.95-9.14 12.25-1.68 3.3-3.89 8.47-4.93 11.5-1.03 3.02-1.87 6.62-1.86 8 0 1.37 0.68 3.51 1.51 4.75 0.83 1.24 1.96 2.25 2.51 2.25 0.55 0 2.2-2.59 3.66-5.75 2.35-5.09 2.77-5.52 3.65-3.75 0.54 1.1 0.75 4.92 0.46 8.5-0.51 6.16-0.37 6.7 2.6 10.35 2.98 3.66 3.13 4.27 3.09 12.5-0.02 4.76-0.57 19.22-1.23 32.15-0.65 12.92-1.19 34.53-1.2 48-0.01 13.47-0.89 46.55-1.96 73.5-1.08 26.95-2.45 62.72-3.04 79.5-0.6 16.78-1.74 36.35-2.53 43.5-0.79 7.15-1.45 13.56-1.47 14.25-0.02 0.69-2.17 2.19-4.78 3.34-2.61 1.15-6.32 3.33-8.25 4.85-1.93 1.51-4.35 4.51-5.38 6.66-1.46 3-1.74 5.05-1.23 8.9 0.36 2.75 1.49 6.35 2.5 8 1.02 1.65 3.83 4.01 6.23 5.24 2.41 1.23 5.39 2.24 6.63 2.25 2.11 0.01 2.19 0.25 1.27 3.76-0.53 2.06-0.98 4.54-1 5.5-0.01 0.96 0.77 1.97 1.73 2.23 0.96 0.27 4.68 3.31 8.27 6.75 3.72 3.58 10.16 8.28 15 10.94 4.66 2.57 10.73 6.64 13.48 9.03 3.84 3.35 6.62 4.78 12 6.17 3.85 0.99 8.24 2.44 9.75 3.22 1.51 0.77 3.54 2.56 4.5 3.95 0.96 1.4 2.43 2.76 3.25 3.02 0.82 0.25 2.31-0.33 3.3-1.3 0.99-0.97 2.12-3.46 2.5-5.54 0.57-3.05 1.27-3.95 3.7-4.7 1.65-0.51 7.5-2.05 13-3.42 5.5-1.36 20.35-4.8 33-7.63 12.65-2.84 28.18-6.73 34.5-8.64 6.32-1.92 18.25-6.2 26.5-9.51 8.25-3.31 24-10.45 35-15.87 11-5.42 27.2-14.17 36-19.44 8.8-5.27 20.25-12.83 25.43-16.8 5.19-3.96 13.74-11.31 19-16.31 5.27-5.01 12.1-12.21 15.19-16 3.1-3.8 6.36-8.36 7.25-10.15 0.9-1.79 1.92-5.16 2.28-7.5 0.36-2.34 2.81-8.53 5.43-13.75 2.63-5.22 5.26-11.86 5.85-14.75 0.59-2.89 1.07-7.05 1.07-9.25 0-2.2-0.95-6.81-2.11-10.25-1.16-3.44-3.64-8.61-5.5-11.5-1.86-2.89-4.8-8.06-6.52-11.5-1.73-3.44-4.02-7.38-5.1-8.75-1.08-1.38-3.16-3.29-4.62-4.26-1.63-1.09-3.22-3.58-4.15-6.5-1.21-3.84-2.39-5.31-6.2-7.74-2.92-1.87-4.72-3.75-4.77-5-0.04-1.1 0.61-3.91 1.45-6.25l1.52-4.25c-8.14-7.16-15-12.25-20.5-15.93-5.5-3.68-17.65-10.49-27-15.13-9.35-4.64-17.22-8.54-17.5-8.66-0.28-0.13 0.29-1.37 1.25-2.75 0.96-1.39 6.33-7.59 11.92-13.78 5.59-6.19 14.52-15.75 19.84-21.25 5.6-5.79 12.57-14.42 16.56-20.5 3.78-5.78 10.06-16.8 13.96-24.5 3.89-7.7 7.61-16.36 8.27-19.25 0.66-2.89 1.2-7.39 1.19-10 0-2.61-0.48-6.55-1.07-8.75-0.59-2.2-6.7-15.25-13.58-29-10.84-21.65-13.27-25.77-18.18-30.74-3.85-3.9-8.22-6.98-13.66-9.64-4.4-2.15-11.37-5.1-15.5-6.56-4.12-1.46-11.89-3.54-17.25-4.61-8.6-1.72-13.66-1.93-43-1.81-18.29 0.08-38.43 0.52-44.75 0.98zm49.5 60.94c17.6-1 34.7-1.61 38-1.36 3.3 0.25 6.56 0.65 7.25 0.88 0.87 0.29 0.13 2.49-2.4 7.17-2.01 3.71-6.39 10.8-9.72 15.75-3.53 5.24-10.88 13.83-17.6 20.54-6.34 6.35-14.68 13.73-18.53 16.41-3.85 2.67-10.15 7.42-14 10.55-3.85 3.14-11.72 8.85-17.5 12.71-5.78 3.86-15 9.62-20.5 12.8-5.5 3.19-19 10.44-30 16.12-12.07 6.23-21.19 10.34-26 10.38l0.73-12.26c0.4-6.74 1.18-16.3 1.74-21.25 0.55-4.95 0.99-20.25 0.97-34-0.02-13.75-0.01-26.24 0.01-27.75 0.03-1.51 1.18-4.1 2.55-5.75 1.97-2.36 4.9-3.77 13.75-6.59 6.19-1.97 16.65-4.87 23.25-6.45 6.6-1.58 17.4-3.59 24-4.47 6.6-0.89 26.4-2.43 44-3.43zm1 207.57c1.65-0.24 5.7-0.26 9-0.05 3.3 0.22 11.85 0.65 19 0.96 7.15 0.32 16.15 1.31 20 2.21 3.85 0.91 7.11 1.78 7.25 1.95 0.14 0.16-0.6 1.99-1.65 4.05-1.04 2.06-6.21 8.81-11.5 15-5.28 6.19-13.76 14.89-18.85 19.33-5.09 4.44-14.2 11.38-20.25 15.42-6.05 4.03-19.1 11.89-29 17.46-9.9 5.56-25.65 13.86-35 18.44-9.35 4.58-23.07 10.85-30.5 13.93-7.43 3.09-16.09 6.07-19.25 6.64-3.16 0.57-6.28 0.69-6.94 0.28-0.9-0.57-1.01-8.73-0.48-33.75 0.39-18.15 1.34-42.68 2.12-54.5 0.78-11.83 1.45-21.61 1.48-21.75 0.04-0.14 2.66 1.93 5.82 4.59 3.16 2.67 6.88 5.61 8.25 6.54 1.5 1.02 4.49 1.71 7.5 1.72 3.52 0.02 8.55-1.3 17-4.46 6.6-2.47 15.82-5.61 20.5-6.98 4.68-1.37 12.55-3.03 17.5-3.69 4.95-0.67 11.93-0.97 15.5-0.66 3.92 0.33 9.08 0 13-0.85 3.57-0.76 7.85-1.59 9.5-1.83zm60 52.45c8.18-6.53 10.64-7.98 17-8l-8.55 8.21c-4.7 4.51-18.2 15.1-30 23.52-20.69 14.76-21.59 15.29-25.45 14.77-2.2-0.29-4.45-0.99-5-1.55q-1.01-1.02 1.08-3.78c1.21-1.61 7.02-5.24 14-8.77 6.56-3.31 15.3-8.35 19.42-11.21 4.13-2.86 12-8.8 17.5-13.19zm61.84 4.81l0.39 2.3c0.21 1.27-0.43 4.47-1.42 7.11-1.63 4.32-1.94 4.62-3.08 3-0.69-0.99-1.35-3.02-1.46-4.51-0.14-1.88 0.69-3.5 2.69-5.31zm-200.35 82.97c4.68-1.53 10.53-2.81 13-2.86 4.14-0.08 4.38 0.05 3 1.59-0.82 0.92-4.65 3.25-8.5 5.17-3.85 1.93-10.37 4.81-14.5 6.42-4.12 1.6-11.77 4.02-17 5.38-5.22 1.37-10.51 2.47-11.75 2.46-1.23-0.01-2.42-0.58-2.64-1.26-0.25-0.8 5.12-3.6 14.75-7.69 8.33-3.54 18.97-7.69 23.64-9.21zm1028-400.87c-2.47 0.41-10.57 2.8-18 5.3-7.42 2.51-18 6.65-23.5 9.21-5.5 2.55-15.17 7.75-21.5 11.55-6.32 3.8-14.15 8.84-17.4 11.19-3.25 2.34-6.4 5.03-7 5.97-0.6 0.93-0.87 1.91-0.6 2.17 0.28 0.26 5.68-1.07 12-2.96 6.33-1.89 11.62-3.31 11.77-3.17 0.15 0.14-1.9 2.28-4.54 4.76-2.64 2.47-13.09 11.47-23.22 20-10.12 8.52-21.92 18.53-26.21 22.25-5.49 4.75-8.61 6.75-10.55 6.77-1.68 0.02-3.71-0.98-5.25-2.59-1.37-1.44-3.28-3.03-4.25-3.53-1.06-0.55-3.02-0.52-5 0.08-1.78 0.54-5.05 2.79-7.25 5.01-2.2 2.22-4.33 4.03-4.75 4.02-0.41-0.01 0.16-2.6 1.27-5.76 1.11-3.17 2.01-7.44 2-9.5-0.01-2.07-0.92-5.44-2.03-7.5-1.11-2.07-5.04-8.25-8.75-13.75-3.7-5.49-8.31-11.05-10.24-12.35-3.12-2.1-4.25-2.29-10.5-1.77-4.5 0.37-8.77 1.47-12 3.08-3.27 1.64-6.2 4.18-8.5 7.38-1.92 2.68-7.25 9.32-11.84 14.76-4.59 5.44-12.07 15.07-16.62 21.4-4.55 6.32-11.42 16.45-15.26 22.5-3.84 6.05-10.94 17.75-15.77 26-4.83 8.25-13.28 23.55-18.77 34-5.5 10.45-13.54 24.62-17.88 31.5-4.33 6.87-9.45 14.41-11.37 16.75-1.91 2.33-3.82 4.26-4.24 4.28-0.41 0.02-1.64-1.9-2.74-4.25-1.1-2.36-5.56-9.68-9.91-16.28-4.35-6.6-16.73-26.18-27.51-43.5-10.77-17.33-22.42-36.23-25.88-42-3.45-5.78-9.42-14.78-13.26-20-3.84-5.23-13.97-20.08-22.52-33-9.56-14.48-15.86-23.12-16.4-22.5-0.49 0.55-1.87 3.47-3.08 6.5-1.21 3.02-3.26 9.32-4.57 14-1.31 4.67-2.38 10.86-2.38 13.75 0 4.99 0.26 5.5 5.25 10.51 3.45 3.45 5.85 6.97 7 10.25 0.96 2.74 1.51 5.21 1.23 5.49-0.29 0.27-2.66-1.95-5.25-4.93-2.6-2.99-7.76-8.5-11.48-12.25-4.78-4.84-8.85-7.84-14-10.31-3.98-1.91-8.6-3.74-10.25-4.05l-3-0.57c1.26 8.22 2.99 13.53 4.66 17.11 1.67 3.57 3.33 9.09 3.69 12.26 0.41 3.61 0.28 5.75-0.35 5.74-0.55-0.01-3.25-2.75-6-6.09-2.75-3.34-5.58-6.6-6.28-7.24-1.05-0.96-1.08-0.43-0.17 2.83 0.62 2.2 3.13 8.05 5.58 13 2.45 4.95 8.73 15.07 13.96 22.5 5.23 7.42 13.17 19.35 17.65 26.5 4.49 7.15 11.6 18.17 15.81 24.5 4.21 6.32 10.54 15.1 14.06 19.5 5.3 6.63 6.44 7.61 6.64 5.75 0.14-1.24-1.26-4.62-3.11-7.5-1.85-2.89-8.21-13.13-14.13-22.75-5.93-9.63-12.89-20.65-15.47-24.5-2.59-3.85-6.46-10.15-8.61-14l-3.89-7c4.62 3.28 7.32 5.75 8.98 7.61 1.66 1.86 9.28 12.39 16.94 23.39 7.65 11 17.85 25.17 22.65 31.5 4.81 6.32 13.77 17.12 19.93 24 6.15 6.87 17.29 21.05 24.76 31.5 7.46 10.45 14.01 20.12 14.56 21.5 0.82 2.07-0.08 5.21-5.3 18.5-3.46 8.8-8.5 22.97-11.2 31.5-2.7 8.52-6.95 20.9-9.45 27.5-2.49 6.6-8.25 22.12-12.79 34.5-4.55 12.37-10.42 28.57-13.05 36-2.63 7.42-5.82 15.75-7.09 18.5-1.48 3.21-3.69 5.92-6.14 7.57-2.11 1.41-4.6 4.11-5.54 6-0.93 1.88-2.06 6.69-2.5 10.68l-0.8 7.24c6.2-1.7 9.58-1.93 11.5-1.6 1.93 0.33 5.87 2.18 8.75 4.1 5.09 3.4 5.24 3.62 4.66 7.26-0.42 2.61 0 5.12 1.37 8.25 1.08 2.47 4.38 7.11 7.34 10.3l5.38 5.8c8.53-1.67 11.9-3.05 13-4.16 1.79-1.79 2.01-3.36 2.04-14.72 0.03-11.27 0.35-13.64 2.81-20.72 1.52-4.4 12.59-26.9 24.58-50 12-23.1 28.6-55.28 36.9-71.5 9.25-18.09 16.45-30.95 18.63-33.25 1.95-2.07 5.34-4.65 7.54-5.75 2.2-1.1 4.42-2.79 4.92-3.75 0.57-1.1 0.5-3.25-0.19-5.75-0.81-2.95-0.8-5.05 0.05-8 0.63-2.2 13.24-24.48 28.01-49.5 14.78-25.03 27.38-46.4 28.02-47.5 0.89-1.56 1-0.02 0.51 7l-0.63 9c4.51 3.54 6.83 4.55 8.06 4.53 1.24-0.02 2.25 0.53 2.25 1.22 0 0.68 0.47 5.07 1.04 9.75 0.57 4.67 1.67 10.75 2.45 13.5 0.79 2.75 3.53 8.15 6.1 12 2.56 3.85 9.72 13.3 15.9 21 6.18 7.7 14.11 16.83 17.63 20.29 3.51 3.46 8.18 6.98 10.38 7.83 2.34 0.91 5.67 1.36 8 1.08 2.2-0.26 8.5-1.2 14-2.09 5.5-0.89 18.78-3.4 29.5-5.58 10.73-2.17 24-4.48 29.5-5.13 5.77-0.68 14.87-0.93 21.5-0.59 6.33 0.32 13.3 1.1 15.5 1.71 2.2 0.62 6.7 2.1 10 3.29 3.3 1.19 9.15 4.21 13 6.73 3.85 2.52 9.59 7.14 12.75 10.27l5.75 5.69c-4.29 8.13-8.22 14.1-11.51 18.5-3.29 4.4-9.8 11.97-14.48 16.82-4.68 4.85-11.66 10.98-15.51 13.62-3.85 2.63-8.35 5.47-10 6.31-1.65 0.84-10.42 4.08-19.5 7.2-9.07 3.12-22.35 7.2-29.5 9.08-7.15 1.88-24.02 5.26-37.5 7.53-13.47 2.26-25.85 4.75-27.5 5.53-1.65 0.78-4.57 2.56-6.5 3.96-1.92 1.4-5.07 2.92-7 3.39-1.92 0.47-4.85 1.17-6.5 1.56-1.65 0.39-4.35 2.12-6.01 3.85-2.93 3.05-3.02 3.42-2.9 12.15 0.07 4.95 0.41 9.9 0.77 11 0.35 1.1 2.26 3.12 4.23 4.5 1.98 1.37 5.11 4.75 6.95 7.5 1.85 2.75 4.06 6.91 4.91 9.25 1.49 4.07 1.79 4.29 7.05 5.25l5.5 1c-0.21 5.81-0.21 8.06-0.13 8.75 0.07 0.68 2.27 2.17 4.88 3.29 2.97 1.28 9.83 2.61 18.25 3.55 7.43 0.82 18.68 2.45 25 3.61 9.9 1.82 14.85 2.09 35.5 1.94 22.75-0.16 24.74-0.33 38-3.25 8.67-1.9 18.77-3.35 26.5-3.79 11.26-0.66 13.4-1.1 21.5-4.45 4.95-2.04 12.15-5.68 16-8.09 3.85-2.4 10.34-7.45 14.41-11.21 4.07-3.77 10.18-10.45 13.57-14.85 3.4-4.4 8.25-11.38 10.79-15.5 2.54-4.13 6.2-10.88 8.14-15 1.94-4.13 4.28-10.2 5.19-13.5 0.95-3.45 1.86-11.54 2.14-19 0.37-9.94 0.08-15.01-1.24-21.5-0.95-4.68-5.08-19.98-9.17-34-4.09-14.03-9.03-29.55-10.99-34.5-1.96-4.95-5.86-13.05-8.68-18-2.81-4.95-7.65-12.15-10.75-16-3.1-3.85-8.5-9.38-12.02-12.28-3.96-3.28-12.45-8.32-22.39-13.29-9.51-4.76-19.04-8.76-23.5-9.87-4.12-1.03-14.47-3.05-23-4.49-14.02-2.38-18.07-2.64-42.5-2.67-22.53-0.04-27.82-0.33-32-1.73-4.52-1.51-5.02-1.98-5.25-4.92-0.2-2.63 0.84-4.63 5.44-10.5 3.12-3.99 10.05-12.2 15.38-18.25 5.33-6.05 16.39-17.53 24.57-25.5 8.18-7.98 20.49-19.01 27.37-24.52 6.87-5.5 17.89-13.63 24.49-18.07 6.6-4.43 17.4-11.13 24-14.89 6.6-3.75 14.93-7.92 18.5-9.26 3.58-1.35 9.77-3.08 13.75-3.85 3.99-0.78 10.4-1.41 14.25-1.41 4.23 0 8.2 0.59 10 1.5 1.65 0.82 3.92 2.73 5.04 4.25 1.12 1.51 2.7 4.77 3.51 7.25 0.81 2.47 1.89 6.97 2.39 10 0.65 3.93 0.33 12.75-1.15 31-1.25 15.48-1.77 27.46-1.32 30.5l0.74 5c8.01-8.53 12.18-14.15 14.43-18 2.25-3.85 5.26-9.93 6.68-13.5 1.43-3.58 3.59-10.78 4.81-16 2.02-8.65 2.1-10.18 0.99-17-0.68-4.13-2.53-12.45-4.11-18.5-1.58-6.05-5.04-16.18-7.7-22.5-2.66-6.33-6.92-14.88-9.47-19-2.54-4.13-6.59-9.48-8.98-11.89-2.4-2.41-6.83-6.06-9.86-8.11-3.02-2.05-8.87-5.43-13-7.51-4.12-2.07-13.46-5.73-20.75-8.13-7.28-2.4-14.93-4.31-17-4.25-2.06 0.07-5.77 0.46-8.25 0.87zm-48 59.67c2.48-0.86 5.61-1.58 6.95-1.61 1.46-0.02 2.07 0.31 1.5 0.83-0.52 0.48-7.25 4.82-14.95 9.65-7.7 4.83-15.12 9.5-16.49 10.38-1.79 1.14-1.22 0.07 2-3.77 2.47-2.96 7.19-7.3 10.49-9.65 3.3-2.34 8.03-4.97 10.5-5.83zm-165.94 23.35c1.14-1.65 2.26-3 2.5-3 0.25 0 0.46 0.56 0.49 1.25 0.02 0.68-0.84 2.37-1.92 3.75-1.07 1.37-2.22 2.16-2.54 1.75-0.32-0.42 0.34-2.1 1.47-3.75zm-13.6 16.25c1.04-1.79 2.04-3.25 2.22-3.25 0.18 0 0.32 1.35 0.32 3 0 1.76-0.93 3.95-2.25 5.31-1.23 1.27-3.93 4.87-6 8-2.06 3.13-3.97 5.69-4.25 5.69-0.27 0-0.5-1.35-0.5-3 0-2.13 1.25-4.39 4.28-7.75 2.35-2.62 5.13-6.22 6.18-8zm-238.4 12.21c0.03-0.29 0.82-0.13 1.75 0.37 0.93 0.5 3.63 3.1 6 5.79 2.36 2.68 5.18 7.35 6.27 10.38 1.08 3.02 1.73 5.72 1.43 6-0.29 0.27-2.44-1.58-4.77-4.11-2.33-2.53-5.7-7.59-7.49-11.25-1.78-3.65-3.22-6.88-3.19-7.18zm96.79 77.29c-5.48-10.87-9.71-19.75-9.4-19.75 0.3 0 4.04 4.39 8.3 9.75 4.27 5.37 11.19 14.93 15.39 21.25 4.2 6.32 12.64 19.26 18.75 28.75 6.11 9.48 11.1 17.81 11.09 18.5-0.02 0.68-1.14 2.71-2.5 4.5-1.36 1.78-3.15 3.25-3.98 3.25-0.82 0-3.94-3.04-6.92-6.75-2.99-3.72-7.73-10.58-10.53-15.25-2.8-4.68-6.25-12.1-7.67-16.5-1.41-4.4-7.05-16.89-12.53-27.75zm96.01 13c8.4-14.72 15.37-26.75 15.51-26.75 0.13 0-0.12 2.47-0.56 5.5-0.44 3.02-1.87 8.31-3.17 11.75-1.3 3.43-6.36 13.32-11.25 21.97-4.89 8.64-10.81 19.22-13.17 23.5-2.36 4.28-5.6 9.35-10.11 14.78l-4.2-4 5.84-10c3.21-5.5 12.71-22.04 21.11-36.75zm72.64-24.25l0.28 4.5c0.19 3.12-0.42 5.87-4.28 13.5l-0.29-4c-0.2-2.59 0.51-5.77 2-9zm-139.91 145.64c5.99-11.2 11.04-19.98 11.21-19.5 0.18 0.47-0.38 3.78-1.23 7.36-0.85 3.57-3.81 11-6.57 16.5-2.77 5.5-7.78 13.82-11.14 18.5-3.36 4.67-6.84 10.7-7.74 13.39-0.89 2.7-3.09 6.63-4.87 8.75-1.79 2.12-3.47 3.74-3.74 3.61-0.27-0.14 0.09-2.28 0.79-4.75 0.71-2.48 3.78-8.78 6.84-14 3.06-5.23 10.46-18.67 16.45-29.86zm-34.51 69.11c1.17-2.89 2.42-5.27 2.77-5.28 0.36-0.02 0.98 0.21 1.4 0.5 0.41 0.29-0.49 3.01-2 6.04-1.52 3.03-3.09 5.51-3.5 5.5-0.42-0.01-0.76-0.35-0.78-0.76-0.01-0.42 0.94-3.12 2.11-6zm384.48 34c3.46-3.59 4.71-4.25 8.02-4.24 2.15 0.01 4.59 0.41 5.42 0.9 1.29 0.75 1.2 1.27-0.62 3.73-1.17 1.57-3.75 4.32-5.75 6.11-2.13 1.9-6.01 3.92-9.38 4.88-3.17 0.9-6.43 1.88-7.25 2.17-0.85 0.3 0.02-1.61 1.98-4.38 1.92-2.71 5.33-6.84 7.58-9.17zm-383.57 1.5c1.63-2.62 3.11-4.75 3.28-4.75 0.17 0-0.02 2.58-0.44 5.75-0.45 3.42-2.28 8.78-4.52 13.25-3.14 6.23-3.84 7.08-4.14 5-0.2-1.38 0.36-5.2 1.24-8.5 0.88-3.3 2.94-8.14 4.58-10.75zm393.26 20.25c1.78-1.1 3.65-2 4.15-2 0.5 0 1.06 1.01 1.24 2.25 0.18 1.23 0.33 3.03 0.34 4 0.01 1-0.74 1.75-1.73 1.76-0.97 0.01-3.22-0.44-5-1-1.79-0.56-3.03-1.46-2.75-2.01 0.27-0.55 1.96-1.9 3.75-3zm-18.25 5.04c3.57-0.42 7.73-0.83 12-1.04l-2.25 3.18c-1.24 1.75-3.6 4.19-5.25 5.43-1.65 1.25-5.48 3.37-8.5 4.72-3.03 1.35-9.1 3.22-13.5 4.15-6.16 1.3-15.27 1.81-39.5 2.21-25.53 0.42-31.86 0.26-33.4-0.84-1.05-0.74-1.66-1.8-1.37-2.35 0.29-0.55 6.77-1.83 14.4-2.83 7.63-1.01 18.82-3.2 24.87-4.86 6.05-1.67 12.12-3.6 13.5-4.29 1.43-0.72 8.91-1.57 17.5-1.99 8.25-0.4 17.92-1.07 21.5-1.49zm-116.08-390.58c-2.43 1.24-5.66 3.67-7.17 5.4-1.52 1.72-3.02 4.6-3.35 6.39-0.32 1.78-0.44 4.12-0.25 5.18 0.31 1.74 0.75 1.58 4.19-1.5 2.12-1.89 5.62-6.58 7.78-10.43 2.15-3.85 3.76-7.07 3.57-7.16-0.19-0.08-2.34 0.87-4.77 2.12z"/>
	<path id="good" fill-rule="evenodd" class="s0" d="m234 88.33c-1.93 0.69-11.82 5.57-22 10.84-10.18 5.28-22.55 11.94-27.5 14.8-4.95 2.86-11.47 7.04-14.5 9.3-3.03 2.25-11.08 8.63-17.91 14.16-6.82 5.54-15.37 13.25-19 17.15-3.62 3.89-9.05 10.64-12.07 15-3.01 4.35-8.89 14.67-13.07 22.92-4.18 8.25-9.66 20.63-12.18 27.5-2.53 6.88-6.18 19.02-8.12 27-1.94 7.98-4.45 20.58-5.58 28-1.13 7.43-2.71 18.9-3.51 25.5-0.79 6.6-1.98 21-2.62 32-1.01 17.24-0.96 21.79 0.42 33 0.88 7.15 2.06 18.96 2.62 26.25 0.56 7.29 1.9 17.19 2.98 22 1.08 4.81 3.34 12.8 5.03 17.75 1.69 4.95 4.81 12.6 6.95 17 2.13 4.4 6.68 12.27 10.11 17.5 3.44 5.23 8.24 11.98 10.68 15 2.44 3.02 8.87 9.55 14.28 14.5 5.42 4.95 16.74 16.6 25.17 25.89 9.45 10.42 19.2 20 25.45 25 5.58 4.46 14.8 10.93 20.5 14.38 5.71 3.45 14.65 7.88 19.87 9.86 5.22 1.97 12.76 4.21 16.75 4.97 3.99 0.77 11.64 1.39 17 1.38 5.36-0.01 12.68-0.63 16.25-1.39 3.57-0.75 11.45-2.81 17.5-4.56 6.05-1.75 14.15-4.76 18-6.7 3.85-1.94 9.93-5.68 13.5-8.31 3.57-2.64 10.32-8.82 15-13.73 4.68-4.92 11.05-12.51 14.17-16.87 3.12-4.35 9.85-14.67 14.95-22.92 5.1-8.25 11.63-19.5 14.51-25 2.89-5.5 6.4-14.05 7.82-19 1.42-4.95 2.86-13.05 3.19-18 0.39-5.64 0.15-11.24-0.62-15-0.67-3.3-2.54-9.15-4.13-13-1.6-3.85-2.79-7.05-2.65-7.1 0.14-0.06 1.83-0.64 3.76-1.29 1.93-0.65 6.65-1.64 10.5-2.21 3.85-0.56 7.34-1.22 7.75-1.46 0.41-0.24-0.81-1.9-2.72-3.69l-3.47-3.25 6.94-17.5c-5.72-14.03-7.64-16.83-13.25-22.5-3.82-3.85-8.25-9.36-9.85-12.25-1.59-2.89-2.79-6.21-2.65-7.38 0.2-1.71-1.41-3.09-8.25-7.07l-8.5-4.96c-37.97 9.36-57.32 13.65-67.5 15.57-10.18 1.91-26.82 4.87-37 6.57-10.18 1.69-21.43 4.03-25 5.19-3.57 1.16-9.54 3.62-13.25 5.47l-6.75 3.36c0.02 7.67 0.94 11.43 2.4 14.5 1.31 2.75 3.57 6.57 5.02 8.5 1.91 2.53 2.49 4.26 2.11 6.25-0.29 1.51-0.19 3.34 0.22 4.07 0.41 0.73 4.13 4.4 8.25 8.17 4.44 4.05 10.15 8.09 14 9.9 5.76 2.72 7.75 3.11 17.5 3.45 6.05 0.21 21.35-0.12 34-0.74 12.65-0.62 23.13-1.01 23.29-0.86 0.16 0.14-0.16 2.06-0.71 4.26-0.55 2.2-4.02 8.27-7.71 13.5-3.7 5.23-9.22 12.88-12.28 17-3.05 4.13-8.31 10.43-11.68 14-3.38 3.57-9.84 9.43-14.37 13-4.52 3.58-11.45 8.42-15.38 10.77-3.94 2.35-10.31 5.58-14.16 7.19-3.85 1.61-11.05 3.65-16 4.53-7.45 1.33-10.46 1.41-17.5 0.48-4.68-0.62-11.43-2.33-15-3.81-3.57-1.49-9.43-4.76-13-7.29-3.57-2.52-7.67-6.11-9.11-7.98-1.43-1.86-3.62-5.41-4.87-7.89-1.25-2.48-2.87-7.43-3.59-11-0.73-3.57-1.8-12.8-2.37-20.5-0.58-7.7-1.05-20.75-1.05-29 0.01-11.13 0.65-19 2.49-30.5 1.37-8.52 2.49-19.21 2.49-23.75 0.01-6.47 0.48-9.17 2.18-12.5 1.5-2.96 2.39-7.14 2.9-13.75 0.65-8.25 1.66-12 7.7-28.5 3.82-10.45 9.54-25.07 12.7-32.5 3.16-7.42 7.1-16.2 8.76-19.5 1.66-3.3 5.49-9.83 8.51-14.5 3.03-4.67 8.52-12.1 12.2-16.5 3.68-4.4 9.96-10.92 13.94-14.5 3.98-3.58 11.15-9.31 15.93-12.74 4.78-3.44 14.09-8.96 20.69-12.28 6.6-3.32 15.6-6.96 20-8.1 4.58-1.18 12.92-2.29 19.5-2.61 8.92-0.42 12.79-0.17 17.25 1.1 3.16 0.89 6.99 2.69 8.5 3.99 1.51 1.29 3.5 4.11 4.43 6.25 0.92 2.14 2.67 9.06 3.89 15.39 2.19 11.31 2.2 11.74 0.61 26-0.88 7.98-2.38 21.25-3.32 29.5-1.67 14.63-1.66 15.1 0.21 18.9 1.06 2.14 3.28 4.8 4.93 5.91 1.65 1.11 4.52 2.05 6.38 2.1 2.85 0.08 4.1-0.71 8-5.05 4.04-4.49 5.95-8.47 15.12-31.43l10.5-26.29c-0.1-20.5-0.49-23.1-2.67-28.64-1.4-3.58-7.19-15.27-12.85-26-5.66-10.73-11.68-21.52-13.37-24-1.7-2.48-4.71-6.08-6.7-8-2-1.92-4.93-4.16-6.52-4.97-1.59-0.81-6.94-4.26-11.89-7.67-4.95-3.4-15.97-9.59-24.5-13.75-8.53-4.16-18.2-8.23-21.5-9.05-3.3-0.82-10.72-1.96-16.5-2.53-5.78-0.58-15.45-1.02-21.5-0.99-6.11 0.02-12.56 0.6-14.5 1.29zm-107.63 134.38c2.59-5.62 3.36-6.56 4.47-5.5 1.13 1.08 0.93 2.61-1.18 9.29-1.4 4.4-3.44 11.38-4.54 15.5-1.11 4.13-3.13 12.9-4.5 19.5-1.37 6.6-4.1 22.35-6.05 35-1.96 12.65-3.94 24.35-4.4 26-0.46 1.65-1.69 4.47-2.75 6.26-1.06 1.8-2.48 3.26-3.17 3.25-0.78-0.01-1.49-2.17-1.88-5.76-0.35-3.16-0.32-8.68 0.05-12.25 0.37-3.57 1.59-11 2.71-16.5 1.12-5.5 4.22-19 6.9-30 2.67-11 6.29-24.05 8.03-29 1.75-4.95 4.58-12.05 6.31-15.79zm-22.66 18.25c0.94-2.22 1.86-3.83 2.04-3.58 0.19 0.26-0.13 3.65-0.71 7.54-0.57 3.9-2.14 9.22-3.49 11.83-1.58 3.06-2.47 4.04-2.49 2.75-0.02-1.1 0.64-4.81 1.45-8.25 0.82-3.44 2.26-8.07 3.2-10.29zm-14.39 106.22c0.96-2.85 2.21-5.18 2.79-5.18 0.68 0 0.86 2.86 0.52 8.25-0.28 4.54-1.08 10.05-1.77 12.25-1.06 3.38-1.37 3.69-1.99 2-0.4-1.1-0.86-4.28-1.01-7.07-0.17-2.92 0.45-7.26 1.46-10.25zm990.15-244.27c-2.21 0.32-5.25 1.38-6.75 2.34-1.49 0.96-3.37 2.76-4.17 4-0.8 1.24-2.38 5.29-3.5 9-1.83 6.03-2.9 7.6-10.05 14.75-6.59 6.59-8.27 8.93-9.53 13.25-0.84 2.89-2.85 14.48-4.47 25.75-1.61 11.27-3.84 28.6-4.94 38.5-1.1 9.9-2.46 25.42-3.03 34.5-0.56 9.08-1.02 47.1-1.02 84.5 0.01 37.4 0.46 75.65 1 85 0.55 9.35 1.47 22.18 2.06 28.5 0.59 6.33 1.15 19.08 1.25 28.33l0.18 16.84c-28.68 16.08-37.51 21.11-38.13 21.54-0.83 0.58-0.76 2.9 0.27 8.79 0.77 4.4 2.21 9.13 3.21 10.5 1 1.38 4.14 3.4 6.97 4.5 4.74 1.84 5.16 2.27 5.17 5.25 0 1.79 0.51 4.26 1.12 5.5 0.62 1.24 3.88 5.07 7.25 8.51 5.83 5.95 6.38 6.26 10.89 6.25 3.93-0.01 5.31 0.52 8 3.05 1.79 1.69 4.38 3.3 5.75 3.59 1.38 0.28 2.95 0.66 3.5 0.84 0.55 0.18 5.72-0.54 11.5-1.61 5.78-1.06 15.38-3.61 21.34-5.66 9.63-3.31 10.96-3.55 12-2.16 0.64 0.86 2.19 2.88 3.44 4.5l2.28 2.94c8.08-4.01 10.7-4.59 13.82-4.34l4.38 0.34-1.23-17c20.51-17.76 34.57-30.86 44.47-40.58 9.9-9.71 19.35-18.33 21-19.15 1.65-0.82 4.24-1.78 5.75-2.13 1.51-0.35 2.75-0.3 2.75 0.11 0 0.41-0.91 3.23-2.03 6.25-1.11 3.02-1.8 5.73-1.52 6 0.29 0.27 13.69-12.77 29.79-29 24.8-24.99 31.49-32.39 43.77-48.42 7.97-10.41 17.68-22.34 21.59-26.5 3.9-4.17 9.45-9.38 12.34-11.58 3.78-2.88 7.67-7.64 13.9-17 4.87-7.31 13.72-23.06 20.23-36 7.37-14.63 12.37-25.91 13.75-31 1.19-4.4 2.6-12.5 3.13-18 0.58-6.08 0.62-15.49 0.1-24-0.67-10.71-1.48-15.82-3.46-21.75-1.42-4.26-3.78-10.11-5.23-13-1.46-2.89-4.33-7.95-6.38-11.25-2.06-3.3-8.13-13.65-13.51-23-5.37-9.35-11.65-19.48-13.96-22.5-2.31-3.02-6.91-7.98-10.22-11-3.85-3.52-10.29-7.71-17.9-11.64-6.54-3.38-17.07-8.2-23.39-10.71-6.32-2.51-15.78-5.7-21-7.08-5.22-1.38-13.55-3.18-18.5-4-4.95-0.82-15.3-1.98-23-2.58-7.7-0.6-18.5-1.75-24-2.55-5.5-0.8-15.18-1.42-21.5-1.39-6.32 0.04-13.53 0.45-16 0.91-2.47 0.46-10.92 1.9-18.78 3.19l-14.27 2.35c-6.55-7.7-9.35-10.89-10.45-12.06-1.63-1.73-2.74-2.01-6.03-1.53zm38.78 35.2c2.34-0.49 4.93-0.93 5.75-0.97 0.82-0.04 2.96 0.81 4.75 1.89 1.79 1.08 3.25 2.2 3.25 2.47 0 0.27-2.81 1.4-6.25 2.51-3.54 1.14-8.96 2-12.5 2-5.62-0.01-6.16-0.19-5.38-1.76 0.48-0.96 2.06-2.54 3.5-3.5 1.45-0.96 4.54-2.15 6.88-2.64zm49.75 31.87c4.68-0.44 19.97-0.67 34-0.51 19.64 0.23 26.99 0.68 32 1.95 3.57 0.91 11.45 3.25 17.5 5.19 6.05 1.94 12.8 4.56 15 5.83 2.2 1.26 4.79 3.48 5.75 4.93 0.96 1.44 2.18 4.54 2.72 6.88 0.62 2.74 0.62 6.48 0 10.5-0.54 3.45-3.94 13.53-7.59 22.5-3.64 8.94-7.97 18.95-9.62 22.25-1.65 3.3-9.85 15.67-18.22 27.5-8.37 11.83-20.52 29.15-27 38.5-6.49 9.35-13.01 18.35-14.51 20-1.5 1.65-4.41 6.15-6.48 10-2.07 3.85-6.06 10.15-8.87 14-2.81 3.85-15.25 17.27-27.64 29.83-12.4 12.56-25.47 25.23-29.04 28.16-3.57 2.94-9.65 7.18-13.5 9.43-3.85 2.25-7.45 4.09-8 4.1-0.55 0-1.58-3.71-2.29-8.26-0.71-4.54-1.55-20.41-1.86-35.26-0.4-18.85-0.09-35.6 1.02-55.5 0.88-15.67 2.51-46.05 3.62-67.5 1.12-21.45 2.36-47.4 2.77-57.67 0.72-18.07 0.82-18.75 3.24-21.27 1.38-1.43 4.75-3.47 7.5-4.54 2.75-1.07 9.05-3.07 14-4.44 4.95-1.37 13.05-3.24 18-4.14 4.95-0.91 12.82-2.01 17.5-2.46zm120.12 44.77c0.52-0.96 1.44-1.75 2.05-1.75 0.61 0 1.47 1.69 1.9 3.75 0.44 2.06 1.09 5.77 1.46 8.25 0.43 2.91 0.1 6.7-0.93 10.75-0.88 3.44-4.92 12.89-8.98 21-4.05 8.11-9.75 18.8-12.65 23.75-2.91 4.95-9.24 14.85-14.08 22-4.83 7.15-12.52 17.78-17.09 23.62-4.56 5.84-13.19 16.19-19.16 23-5.97 6.81-11.66 14.18-12.64 16.38-1.18 2.64-15.57 18.24-42.44 46-22.36 23.1-41.98 43.24-43.61 44.75-1.62 1.51-3.63 2.75-4.45 2.75-1.33 0-1.33-0.33 0-3 0.82-1.65 7.46-9.21 14.75-16.81 8.99-9.36 14.36-15.88 16.71-20.25 2.13-3.96 7.9-11.22 15-18.85 6.35-6.83 17.32-18.53 24.39-26 9.67-10.22 15.6-17.68 23.91-30.09 6.08-9.07 18.59-27.52 27.8-41 9.21-13.48 18.88-28.1 21.48-32.5 2.6-4.4 7.55-13.62 11-20.5 3.45-6.87 8.16-17.23 10.46-23 2.31-5.77 4.61-11.29 5.12-12.25zm-248.62 310.1c2.7-1.27 5.13-1.68 7.5-1.28 1.93 0.32 3.84 0.89 4.26 1.26 0.42 0.37-1.6 1.91-4.5 3.42-3.63 1.9-6.8 2.75-15.26 2.82l2-2.18c1.1-1.19 3.8-3.01 6-4.04zm-198-390.78c-3.3 0.49-8.7 1.85-12 3.03-3.3 1.18-8.93 3.85-12.5 5.92-3.57 2.07-9.2 5.79-12.5 8.27-3.3 2.47-10.07 8.71-15.03 13.86-4.97 5.14-11.58 13.18-14.69 17.85-3.11 4.67-8.12 13.67-11.13 20-3.02 6.33-7.36 17.12-9.65 24-3.34 10-4.36 14.8-5.1 24-0.51 6.33-1.64 15.1-2.51 19.5-0.87 4.4-4.19 18.57-7.37 31.5-3.19 12.92-6.63 28.9-7.64 35.5-1.48 9.62-1.85 17.86-1.85 41.5-0.01 17.76 0.52 34.47 1.32 42 0.74 6.87 2.25 15.42 3.36 19 1.11 3.57 3.83 10.1 6.05 14.5 2.21 4.4 6.39 11.82 9.28 16.5 2.88 4.67 7.99 12.21 11.35 16.75 3.36 4.54 9.82 12.13 14.36 16.87 4.54 4.75 12.75 12.11 18.25 16.37 5.5 4.25 14.28 10.54 19.5 13.98 5.22 3.43 14 8.4 19.5 11.05 5.5 2.65 12.7 5.52 16 6.38 3.3 0.86 9.26 1.57 13.25 1.58 3.99 0.01 9.61-0.49 12.5-1.12 2.89-0.63 8.18-2.33 11.75-3.78 3.57-1.45 9.88-4.97 14-7.82 4.13-2.85 10.2-7.96 13.5-11.36 3.3-3.4 5.32-5.81 4.5-5.37-0.82 0.45-4.09 2.54-7.25 4.64-5.08 3.38-5.83 3.63-6.41 2.08-0.48-1.3 1.24-3.55 6.75-8.77 4.08-3.87 12.4-13.09 18.5-20.5 6.11-7.42 13.55-16.86 16.55-20.98 3.01-4.13 7.27-10.43 9.48-14 2.2-3.58 5.63-9.43 7.6-13 1.98-3.58 5.38-10.55 7.57-15.5 2.18-4.95 5.4-13.05 7.15-18 1.75-4.95 4.5-14.18 6.1-20.5 1.61-6.33 4.53-21.63 6.49-34 1.96-12.38 3.82-28.35 4.14-35.5 0.33-7.42 0.09-16.97-0.55-22.25-0.62-5.09-2.09-11.84-3.28-15-1.5-3.98-4.04-7.72-8.25-12.14-5.17-5.42-6.36-7.38-7.89-13-0.99-3.63-3.1-12.69-4.7-20.11-1.6-7.42-4.08-17.1-5.53-21.5-1.44-4.4-5.02-12.95-7.94-19-2.93-6.05-8.06-14.83-11.41-19.5-3.35-4.67-9.58-12.02-13.86-16.33-4.27-4.3-10.69-9.98-14.26-12.62-3.57-2.64-9.65-6.56-13.5-8.73-3.85-2.16-10.82-5.57-15.5-7.57-4.68-2-12.32-4.73-17-6.07-4.68-1.34-11.87-2.67-16-2.97-4.12-0.29-10.2-0.13-13.5 0.36zm48 85.31c2.2-0.68 6.7-1.28 10-1.33 3.3-0.04 7.48 0.27 9.28 0.69 2.47 0.57 3.51 1.5 4.21 3.76 0.51 1.65 1.85 6.6 2.98 11 1.13 4.4 2.73 11.83 3.54 16.5 0.81 4.67 1.93 14.35 2.47 21.5 0.66 8.69 0.65 17.14-0.04 25.5-0.56 6.87-1.93 17-3.04 22.5-1.12 5.5-4.3 16.97-7.09 25.5-2.78 8.52-7.94 22.25-11.47 30.5-3.53 8.25-9.65 20.85-13.59 28-3.94 7.15-10.61 18.17-14.82 24.5-4.21 6.32-10.3 14.09-13.54 17.25-3.24 3.16-7.69 6.96-9.89 8.44-2.2 1.48-7.15 4.15-11 5.92-3.85 1.77-10.6 4.17-15 5.32-4.4 1.15-9.69 2.08-11.75 2.08-2.06-0.01-4.99-0.63-6.5-1.39-1.51-0.76-4.44-3.23-6.5-5.5-2.67-2.93-4.47-6.43-6.25-12.12-1.5-4.81-2.94-12.89-3.61-20.25-0.61-6.74-0.91-17.43-0.66-23.75 0.31-7.95 1.19-14.12 5.24-28.5l2.03 21 3.67-12.5c2.02-6.88 4.16-14.75 4.75-17.5 0.59-2.75 2.31-6.91 3.82-9.24 1.52-2.34 4.11-5.17 5.76-6.3 1.65-1.12 4.35-2.64 9-4.67l-0.77-7.4c-0.43-4.06-1.44-9.75-2.25-12.64-0.82-2.89-1.48-7.5-1.48-10.25 0-2.91 1.28-8.86 3.08-14.25 1.69-5.09 5.12-13.3 7.61-18.25 2.49-4.95 6.79-12.38 9.56-16.5 2.77-4.13 7.83-10.88 11.25-15 3.42-4.13 10.26-11.33 15.2-16 5.05-4.78 11.79-10 15.39-11.94 3.53-1.88 8.21-3.99 10.41-4.68zm85.78 77.37c1.44-1.51 3.1-2.75 3.67-2.75 0.57 0 1.27 2.14 1.55 4.75 0.28 2.61 0.5 10.6 0.49 17.75-0.01 7.15-0.46 18.4-1.01 25-0.54 6.6-1.65 15.94-2.48 20.75-0.82 4.81-2.29 11.46-3.25 14.77-0.96 3.31-2.2 6.02-2.75 6.02-0.55 0-1.84-0.58-2.86-1.27-1.79-1.23-1.8-2-0.26-23.77 0.92-12.95 2.37-25.68 3.43-30 1.43-5.81 1.73-9.86 1.34-18-0.5-10.29-0.45-10.55 2.13-13.25zm-15.28 107.07c4.13-2.65 7.73-4.82 8-4.82 0.28 0-0.51 5.06-1.74 11.25-1.24 6.19-3.44 14.85-4.9 19.25-1.45 4.4-4.55 11.82-6.89 16.5-2.33 4.67-5.2 9.62-8.5 13.5l0.46-2.5c0.25-1.38 0.75-4.3 1.11-6.5 0.36-2.2 2.41-8.61 4.56-14.25 2.14-5.64 4.01-11.66 4.15-13.39 0.22-2.76-0.16-3.27-3.25-4.36-3.02-1.06-3.46-1.62-3.24-4.12 0.15-1.58 0.83-3.52 1.5-4.31 0.68-0.79 4.62-3.6 8.74-6.25zm-34.95 60.89c3.46-3.74 6.55-6.55 6.87-6.26 0.32 0.29-1.67 4.17-4.42 8.62-2.75 4.45-7.09 10.42-9.63 13.26-2.55 2.84-6.15 6.05-11.37 9.08l1.89-2.96c1.04-1.62 3.8-5.65 6.14-8.95 2.33-3.3 7.07-9.06 10.52-12.79zm-388.05-317.62c-4.68 1.05-11.87 3.52-16 5.49-4.12 1.96-11.32 6.11-16 9.23-4.68 3.12-10.19 7.36-12.25 9.43-2.06 2.07-4.7 5.67-5.86 8.01-1.29 2.59-2.46 7.67-3 13-0.49 4.81-2.01 12.12-3.39 16.25-1.37 4.12-7.42 17.06-13.43 28.75-6.01 11.69-13.6 27.55-16.88 35.25-3.28 7.7-8.01 20.07-10.52 27.5-2.51 7.42-5.94 19.12-7.64 26-1.69 6.87-3.98 17.9-5.08 24.5-1.13 6.81-2.46 21.95-3.07 35-0.8 17.1-0.77 26.59 0.1 37 0.64 7.7 1.85 17.6 2.69 22 0.83 4.4 2.84 11.6 4.45 16 1.61 4.4 4.41 10.25 6.23 13 1.82 2.75 4.69 6.58 6.37 8.5 1.69 1.92 5.14 7.55 7.66 12.5 2.53 4.95 7.46 12.6 10.95 17 3.5 4.4 9.92 10.97 14.26 14.59 4.35 3.63 12.41 9.86 17.91 13.85 5.5 4 12.47 8.52 15.5 10.05 3.03 1.54 8.2 3.57 11.5 4.51 3.62 1.03 9.37 1.7 14.5 1.67 4.68-0.02 12.55-0.92 17.5-2 4.95-1.08 12.6-3.35 17-5.05 4.4-1.7 11.94-5.46 16.76-8.35 4.81-2.9 13.1-8.87 18.42-13.27 5.31-4.4 13.84-12.5 18.95-18 5.11-5.5 12.71-14.28 16.9-19.5 4.18-5.23 11.55-15.35 16.36-22.5 4.82-7.15 11.02-16.83 13.79-21.5 2.76-4.68 6.85-11.88 9.08-16 2.23-4.13 6.18-12.23 8.77-18 2.59-5.78 6.89-17.03 9.56-25 2.67-7.98 5.77-19.79 6.88-26.25 1.12-6.46 2.03-15.58 2.03-20.25 0-4.68-0.49-11.99-1.09-16.25-0.6-4.26-2.22-11.35-3.6-15.75-1.38-4.4-5.12-12.95-8.31-19-3.19-6.05-7.69-15.5-9.99-21-2.31-5.5-7.22-16.08-10.92-23.5-3.7-7.42-9.32-17.78-12.5-23-3.18-5.23-8.29-12.88-11.35-17-3.07-4.13-8.31-10.88-11.66-15-3.34-4.13-8.33-9.79-11.08-12.59-3.18-3.23-6.27-5.37-8.5-5.89-1.93-0.44-5.75-2.5-8.5-4.57-2.75-2.07-7.93-5.36-11.5-7.32-3.57-1.96-10.21-4.93-14.75-6.6-4.54-1.67-13.87-4.16-20.75-5.53-6.87-1.38-13.74-2.46-15.25-2.42-1.51 0.05-6.57 0.95-11.25 2.01zm-21.31 34.2c1.46-1.21 2.76-2.11 2.89-2 0.13 0.12-0.42 2.91-1.23 6.21-0.91 3.7-2.41 6.86-3.91 8.25-1.34 1.24-2.89 2.25-3.44 2.25-0.55 0-0.99-0.79-0.98-1.75 0.01-0.96 0.93-3.78 2.03-6.25 1.1-2.48 3.19-5.49 4.64-6.71zm-5.19 48.02c3.75-3.34 6.75-5.25 8-5.08 1.84 0.25 2.04 1.24 2.55 12.27 0.41 9.11 1.01 12.94 2.5 15.88 1.07 2.14 2.4 4.17 2.95 4.5 0.55 0.34 2.8 1.07 5 1.62 3.23 0.81 4.19 1.61 5 4.16 0.55 1.73 1.22 3.42 1.5 3.76 0.28 0.34 11.07-3.94 24-9.49 14.78-6.36 27.67-11.19 34.75-13.02 6.19-1.6 12.82-2.91 14.75-2.91 1.93 0 4.96 0.6 6.75 1.32 1.79 0.73 4.28 2.64 5.54 4.25 1.26 1.61 3.39 5.85 4.73 9.43 1.34 3.58 3.44 10.55 4.67 15.5 1.86 7.43 2.25 11.78 2.26 25 0 11.74-0.48 18.26-1.82 24.5-1 4.67-3.4 13.45-5.33 19.5-1.93 6.05-5.53 15.95-7.99 22-2.46 6.05-7.02 15.95-10.12 22-3.11 6.05-8.82 15.95-12.69 22-3.88 6.05-10.63 15.72-15 21.5-4.38 5.77-11.83 15-16.57 20.5-4.74 5.5-12.17 13.38-16.52 17.52-4.35 4.14-11.73 10.07-16.41 13.18-4.68 3.12-11.65 7.16-15.5 8.98-6.76 3.2-7.42 3.32-19 3.25-9.77-0.05-12.72-0.42-15.87-2-2.12-1.06-4.68-3.28-5.67-4.93-0.99-1.65-3.17-8.17-4.84-14.5-1.67-6.33-3.76-15.78-4.64-21-0.89-5.23-1.63-15.35-1.65-22.5-0.03-8.64 0.65-17.19 2.03-25.5 1.14-6.88 2.56-20.15 3.14-29.5 0.59-9.35 1.99-23.3 3.1-31 1.12-7.7 2.93-18.5 4.02-24 1.09-5.5 3.82-17.2 6.06-26 2.24-8.8 6.3-22.75 9.01-31 2.71-8.25 6.37-17.21 8.12-19.92 1.76-2.71 5.89-7.33 9.19-10.27zm-40.79 55.44c1.93-4.26 3.71-7.75 3.95-7.75 0.24 0 0.14 2.59-0.22 5.75-0.36 3.16-2.15 11.82-3.99 19.25-1.83 7.42-4.85 18-6.71 23.5-1.86 5.5-3.93 10.9-4.61 12-1.03 1.65-1.14 0.7-0.62-5.5 0.34-4.13 1.29-10.88 2.11-15 0.82-4.13 2.64-11.33 4.04-16 1.4-4.68 4.12-11.99 6.05-16.25zm177.86 66.75c1.66-3.95 1.7-3.97 2.61-1.5 0.68 1.84 0.44 3.5-0.88 6.28-0.99 2.09-2.25 3.61-2.8 3.39-0.55-0.21-0.91-1.24-0.8-2.28 0.1-1.04 0.95-3.69 1.87-5.89zm-209.05 6.25c0.98-3.16 2.16-5.75 2.62-5.75 0.47 0 1.03 1.91 1.24 4.25 0.22 2.34-0.02 6.95-0.53 10.25-0.51 3.3-1.34 23.32-1.85 44.5-0.51 21.17-1.32 40.07-2.68 45.5l-1.1-4c-0.61-2.2-2.03-8.84-3.16-14.75-1.31-6.84-2.06-14.84-2.07-22-0.01-8.2 0.55-13.42 2.07-19.25 1.15-4.4 2.45-13.63 2.89-20.5 0.44-6.88 1.6-15.09 2.57-18.25zm169.03 49.45c2.08-2.36 3.93-4.05 4.12-3.75 0.18 0.3-0.99 3.36-2.6 6.8-1.62 3.44-4.3 7.82-5.98 9.75-2.54 2.93-3.04 3.17-3.04 1.5 0-1.1 0.83-3.8 1.85-6 1.02-2.2 3.57-5.93 5.65-8.3z"/>
	<g id="Layer 1">
	</g>
</svg>